<svg xmlns="http://www.w3.org/2000/svg" width="150" height="150" viewBox="0 0 27 22" fill="none">
<path d="M16.2922 7.77653C15.8317 6.99 14.5538 6.7951 13.5624 7.0422C13.3181 7.10484 13.2335 7.26493 13.2476 7.41458C12.7449 7.84961 12.6133 8.47954 12.8154 9.03289C13.1442 9.93775 14.5678 9.96908 15.5169 9.64889C16.4942 9.31831 16.6774 8.44825 16.2922 7.77653Z" fill="#FF0000" stroke="black" stroke-width="0.111367"/>
<path d="M5.00586 2.28122C6.15695 1.92972 7.63692 2.85546 8.42623 3.33573C9.67598 4.10138 10.6955 5.06193 11.8184 5.93547C12.2507 6.26609 12.838 5.85194 12.6077 5.47608C11.358 3.41926 7.6886 0.62115 4.29641 1.05618C0.645823 1.52601 0.890135 4.75219 1.10626 6.87165C1.30829 8.77882 1.23781 11.3751 4.55482 11.5247C7.02614 11.6431 10.7237 10.5781 11.7573 8.7649C12.2319 8.34031 12.4762 7.83916 12.1755 7.29624C12.307 7.12571 12.1755 6.82641 11.8607 6.84729C9.28602 7.02826 5.37703 5.78234 3.88296 4.23711C3.12183 3.46102 3.98163 2.59096 5.00586 2.28122Z" fill="#FF0000" stroke="black" stroke-width="0.111367"/>
<path d="M26.4259 5.71977C26.4259 3.99357 26.3837 1.48084 23.5506 1.05625C20.0127 0.523777 17.1656 3.8996 15.8312 5.77545C15.6292 6.05387 16.0614 6.2766 16.3622 6.12695C16.5078 6.15828 16.6769 6.13739 16.7662 6.02951C17.8609 4.70006 20.7175 2.0342 23.1371 2.44139C24.0298 2.59104 24.3869 3.45413 24.199 4.02837C23.9828 4.70006 23.0338 5.22209 22.3291 5.58404C21.0229 6.25572 19.6698 6.40537 18.2039 6.73251C18.2039 6.73251 18.2039 6.73251 18.1898 6.73251C18.1052 6.71163 18.0019 6.69075 17.9173 6.66987C17.7576 6.62811 17.6448 6.70119 17.6025 6.79864C17.4569 6.74644 17.2877 6.77776 17.1844 6.89609C16.9823 7.1397 17.0857 7.41812 17.128 7.68262C17.1985 8.03412 17.2737 8.37519 17.3301 8.72669C17.3442 8.79977 17.3864 8.85546 17.4616 8.89722C17.4334 8.9703 17.4194 9.04687 17.4616 9.11995C18.5563 10.9297 21.676 12.8577 24.3353 11.5144C26.5716 10.3728 26.4119 7.45644 26.4259 5.71977ZM23.7808 1.84279C24.7017 2.10728 25.0728 2.95994 25.2467 3.84392C25.2044 3.84392 25.148 3.85436 25.101 3.8648C25.1856 3.34277 24.9883 2.79985 24.3963 2.25693C24.2131 2.08988 24.011 1.95067 23.7808 1.84279Z" fill="#FF0000" stroke="black" stroke-width="0.111367"/>
<path d="M14.205 10.8426C14.3506 10.7347 14.3037 10.5225 14.0734 10.4703C13.815 10.418 13.5425 10.418 13.27 10.3728C12.9693 10.3206 12.725 10.2232 12.5089 10.0631C12.3961 9.97954 12.2364 10.0109 12.1659 10.0839C12.1236 10.0839 12.0814 10.0944 12.0532 10.1257C9.98121 12.7254 7.45351 15.7393 8.98986 18.8263C9.12142 19.0804 9.65233 19.1256 9.75099 18.8263C9.76509 18.795 9.76508 18.7741 9.77918 18.7428C10.0799 18.6036 10.3101 18.4121 10.5826 18.2312C11.3437 19.1152 12.2223 19.9121 13.4439 20.5003C13.9043 20.723 14.2614 20.2567 13.9748 19.9887C13.6882 19.7207 13.458 19.4354 13.2278 19.15C13.2278 19.1186 13.2278 19.0768 13.2137 19.042C12.3351 16.23 12.5512 13.7695 14.3084 11.1732C14.407 11.0445 14.3365 10.9158 14.205 10.8426Z" fill="#FF0000" stroke="black" stroke-width="0.111367"/>
<path d="M17.4277 10.439C17.3855 10.3763 17.315 10.3415 17.2398 10.3311C17.2257 10.3102 17.2116 10.2998 17.2116 10.2789C17.1975 10.258 17.1834 10.2476 17.1693 10.2267C17.1976 10.164 17.2257 10.0979 17.2116 10.0353C17.1975 9.97262 17.0801 9.90649 16.9955 9.90649C16.6807 9.92738 16.5209 10.1501 16.2485 10.2684C16.0182 10.3763 15.6894 10.4181 15.431 10.3311C15.2713 10.2789 15.0551 10.4285 15.2148 10.5329C15.1162 10.5643 15.0551 10.6408 15.1021 10.7348C16.4035 13.954 16.7089 17.3716 15.6424 20.65C15.5437 20.9597 16.1029 21.1407 16.333 20.8623C16.9203 20.1279 17.5405 19.4145 18.1466 18.6906C18.5647 19.2753 18.8372 19.9052 19.1239 20.5526C19.2084 20.7649 19.6548 20.8519 19.8145 20.6152C22.1825 16.9888 19.8709 13.6861 17.4277 10.439Z" fill="#FF0000" stroke="black" stroke-width="0.111367"/>
</svg>
